<svg id="a3246b16-2812-4a17-b0cc-5b0c318e6703" data-name="Layer 1" xmlns="http://www.w3.org/2000/svg" width="497.4" height="230.77" viewBox="0 0 497.4 230.77"><defs><style>.ad6f8eb0-6535-4c34-b735-86c7e5f257d1,.f2a5807d-f49c-4ae8-91af-dcc1877a80b2{fill:#434343;}.ad6f8eb0-6535-4c34-b735-86c7e5f257d1{stroke:#434444;stroke-miterlimit:10;stroke-width:3.12px;}.b0410cd8-1b2a-4cd2-ac8a-a18113a2b815{fill:#3275bb;}</style></defs><title>Dare2Compete-White - Low</title><path class="ad6f8eb0-6535-4c34-b735-86c7e5f257d1" d="M74.39,196.21A42.1,42.1,0,0,1,45,208c-27.21,0-41.39-18.55-41.5-39.8-.23-21,13.83-40.69,41.5-40.69a42.13,42.13,0,0,1,29.4,11.8l-4.26,3.6a35.82,35.82,0,0,0-25.14-10c-23.52,0-35.62,16.18-35.51,35.07C9.71,186.43,21.7,202.4,45,202.4a36.58,36.58,0,0,0,25.25-10Z" transform="translate(-1.92 -1.06)"/><path class="ad6f8eb0-6535-4c34-b735-86c7e5f257d1" d="M84.19,179.47c0-17.65,12.92-28.89,28.94-28.89s28.94,11.24,28.94,28.89-12.91,28.44-28.94,28.44S84.19,197.11,84.19,179.47Zm52.35,0c0-14.39-10.49-23.72-23.41-23.72s-23.4,9.33-23.4,23.72,10.49,23,23.4,23S136.54,193.85,136.54,179.47Z" transform="translate(-1.92 -1.06)"/><path class="ad6f8eb0-6535-4c34-b735-86c7e5f257d1" d="M239.61,207.12V173.84c0-10.67-7.38-18.21-18.21-18.21s-18.34,7.87-18.34,18.55v32.94h-5.64V174.18c0-10.68-7.5-18.43-18.34-18.43s-18.21,7.75-18.21,18.43v32.94h-5.65V151.59h5.3l.12,9.21c3.92-7.3,11.18-10.34,18.56-10.34,8.65,0,17.75,3.83,21.1,13.72,3.46-9.11,12.34-13.72,21.1-13.72,13.95,0,23.86,9.56,23.86,23.38v33.28Z" transform="translate(-1.92 -1.06)"/><path class="ad6f8eb0-6535-4c34-b735-86c7e5f257d1" d="M260.14,230.28V151.59h5.53v13.15c4.5-8.43,13.61-13.94,24.68-13.94,15.45.56,27.67,10.68,27.67,28.55,0,18.66-12.92,28.78-28.94,28.78-9.69,0-18.68-4.61-23.52-13.83v36Zm52.23-50.93c0-15.62-10.38-23.27-23.29-23.27-13.26,0-23.06,9.78-23.06,23.39s10,23.38,23.06,23.38S312.37,195,312.37,179.35Z" transform="translate(-1.92 -1.06)"/><path class="ad6f8eb0-6535-4c34-b735-86c7e5f257d1" d="M328.74,179.35c0-16.63,12.92-28.66,28.94-28.66s30.32,9.55,28.13,31.25h-51.3c1.15,13,11.41,20.57,23.17,20.57,7.5,0,16.26-2.92,20.52-8.43l4,3.15c-5.53,7.08-15.45,10.68-24.56,10.68C341.66,207.91,328.74,197,328.74,179.35Zm52-2.25c-.11-13.71-9.34-21.35-23.06-21.35-11.76,0-21.91,7.75-23.17,21.35Z" transform="translate(-1.92 -1.06)"/><path class="ad6f8eb0-6535-4c34-b735-86c7e5f257d1" d="M411.18,134.84v16.75h19.37v4.61H411.18V190c0,7.53,1.62,12.82,10.49,12.82a21.59,21.59,0,0,0,8.77-2.25l2,4.49a25.39,25.39,0,0,1-10.73,2.82c-12.1,0-16-7-16-17.88V156.2H393.54v-4.61h12.11V135.4Z" transform="translate(-1.92 -1.06)"/><path class="ad6f8eb0-6535-4c34-b735-86c7e5f257d1" d="M440.47,179.35c0-16.63,12.91-28.66,28.94-28.66s30.32,9.55,28.13,31.25H446.23c1.16,13,11.42,20.57,23.18,20.57,7.49,0,16.25-2.92,20.52-8.43l4,3.15c-5.54,7.08-15.45,10.68-24.56,10.68C453.38,207.91,440.47,197,440.47,179.35Zm52-2.25c-.12-13.71-9.34-21.35-23.06-21.35-11.76,0-21.91,7.75-23.18,21.35Z" transform="translate(-1.92 -1.06)"/><path class="f2a5807d-f49c-4ae8-91af-dcc1877a80b2" d="M105.22,58.19c0,28.2-17.85,56.23-57.84,56.23H1.93V1.63H47.38C87.54,1.63,105.22,29.83,105.22,58.19ZM47.38,94C73,94,83.57,76.07,83.57,58.19c0-18-10.58-36.42-36.19-36.42H23.58V94Z" transform="translate(-1.92 -1.06)"/><path class="f2a5807d-f49c-4ae8-91af-dcc1877a80b2" d="M203.71,35v79.43h-19l-1-11.6c-4.63,9.51-17.69,14-26.78,14-24,0-41.64-14.5-41.64-42.22,0-27.23,18.51-41.57,42.14-41.57,10.91,0,21.65,4.84,26.28,12.89L184.38,35ZM135.46,74.62c0,15.15,10.74,24.17,24.13,24.17,15.86,0,23.8-12.08,23.8-24.17,0-11.92-7.94-24-23.8-24C146.2,50.62,135.46,59.48,135.46,74.62Z" transform="translate(-1.92 -1.06)"/><path class="f2a5807d-f49c-4ae8-91af-dcc1877a80b2" d="M240.9,44.17c6.28-9.83,14.7-11.28,23-11.28,8.43,0,16.52,3.22,21,7.57l-9.09,17.08c-4.13-3.38-7.94-5.15-14.55-5.15-10.57,0-20.32,5.48-20.32,20.14v41.89H220.73V35h18.68Z" transform="translate(-1.92 -1.06)"/><path class="f2a5807d-f49c-4ae8-91af-dcc1877a80b2" d="M333.94,98.63c7.44,0,17.19-2.74,21.81-7.41l12.89,12.41c-8.59,8.7-22.64,12.89-35,12.89-28.1,0-44.79-16.92-44.79-42.38,0-24.17,16.86-41.57,43.3-41.57,25.12,0,41.48,13.86,41.48,41.73a58.05,58.05,0,0,1-.33,7.41H309.64C311,91.54,319.73,98.63,333.94,98.63ZM332.78,50C321.87,50,313,55.13,310,65.44h44C352.61,55.13,344.35,50,332.78,50Z" transform="translate(-1.92 -1.06)"/><path class="b0410cd8-1b2a-4cd2-ac8a-a18113a2b815" d="M492.63,1.06H403a6.33,6.33,0,0,0-6.41,6.25V115.36A6.32,6.32,0,0,0,403,121.6h89.67a6.32,6.32,0,0,0,6.41-6.24V7.31A6.33,6.33,0,0,0,492.63,1.06Zm-1.25,113.41H404.21V86.89c0-24.13,22.45-31.33,43.66-31.33,8.15,0,23.06-1.35,23.06-13.49,0-11.39-10.61-16.79-24.44-16.79-10.61,0-21.52,5.25-21.68,14.69H404.67c.16-22.18,21.68-31.77,41.51-31.77,21.52,0,44.89,8.54,44.89,33.42,0,26.68-20.6,31.78-43.2,31.78C439,73.4,424.5,75.65,424.5,87v9h66.88Z" transform="translate(-1.92 -1.06)"/></svg>